<?xml version="1.0" encoding="utf-8"?>
<!-- Generator: Adobe Illustrator 26.0.2, SVG Export Plug-In . SVG Version: 6.00 Build 0)  -->
<svg version="1.1" id="Layer_1" xmlns="http://www.w3.org/2000/svg" xmlns:xlink="http://www.w3.org/1999/xlink" x="0px" y="0px"
	 viewBox="0 0 1224 1224" style="enable-background:new 0 0 1224 1224;" xml:space="preserve">
<style type="text/css">
	.st0{fill:#A97C50;}
	.st1{fill:#231F20;}
	.st2{fill:#939598;}
	.st3{fill:#FFFFFF;}
	.st4{fill:#A97C50;stroke:#231F20;stroke-width:19.8425;stroke-linecap:round;stroke-linejoin:round;stroke-miterlimit:10;}
	.st5{fill:#A97C50;stroke:#231F20;stroke-width:19.8425;stroke-linecap:round;stroke-miterlimit:10;}
	.st6{fill:none;stroke:#FFFFFF;stroke-width:34.0157;stroke-linecap:round;stroke-linejoin:round;stroke-miterlimit:10;}
	.st7{fill:none;stroke:#FFFFFF;stroke-width:42.5197;stroke-linecap:round;stroke-miterlimit:10;}
	.st8{fill:none;stroke:#FFFFFF;stroke-width:34.0157;stroke-linecap:round;stroke-miterlimit:10;}
</style>
<path class="st5" d="M1107.45,405.1c-18.21-16.78-42.03-27.81-67.75-33.34c-12.52-15.67-27.16-30.9-43.23-45.02
	c-42.03-36.95-101.62-55.44-151.69-53.6c-42.84-42.56-123.29-54.73-172.47-26.13c-41.05-28.31-97.34-40.71-132.43-14.4
	c-9.31,6.98-15.85,15.74-20.09,25.66c-18.33-8.36-39.4-13.13-61.84-13.13c-70.62,0-160.89,47.17-160.89,105.36
	s90.27,87.82,160.89,87.82c42.44,0,80.04-10.71,103.3-31.88c29.57,33.12,67.84,49.16,104.45,35.1
	c12.84,6.76,27.19,11.75,42.12,14.93c-26.46,12.29-48.47,34.78-62.28,59.83c-18.71-5.35-38.8-8.26-59.72-8.26
	c-57.32,0-108.46,21.82-141.86,55.92c-43.98-24.68-108.24-24.35-144.39,6.82c-13.56,11.7-25.03,25.27-33.37,39.77
	C183.8,615,118.62,671.47,118.62,740.5c0,10.53,1.53,20.29,4.39,29.3c-44.2,18.36-72.68,50.74-72.68,100.28
	c0,84.81,83.44,153.57,186.37,153.57c93.48,0,170.89-56.72,184.31-130.67c25.57,35.94,73.15,60.11,127.62,60.11
	c81.51,0,173.81-28.05,173.81-94.78c0-5.68-0.68-11.46-1.96-17.27c24.86,10.48,53.03,16.4,82.88,16.4
	c99.73,0,180.73-66.03,182.17-147.92c61.27-2.24,111.18-40.45,119.39-89.63c14.46-6.55,27.18-15.19,37.11-25.97
	C1193.79,537.72,1165.76,458.83,1107.45,405.1z"/>
<path class="st5" d="M513.58,290.41c0.21-23.11,7.82-43.94,26.3-57.79c40.74-30.54,110.04-8.93,150.9,29.19"/>
<path class="st5" d="M673.05,438.31c-42.78,21.39-88.82-0.15-121.24-43.38"/>
<path class="st5" d="M758.12,460.34c-46.72,2.73-97.98-12.46-125.48-44.36"/>
<path class="st5" d="M634.13,282.97c7.11-9.53,15.47-18.44,24.8-26.48c48.57-41.88,146.87-29.08,191.65,22.87"/>
<path class="st5" d="M831.12,405.91c-32.94,18.76-33.46,61.09-7.92,81.31"/>
<path class="st5" d="M1060.51,401.55c-15.53-25.97-37.92-51.86-64.04-74.81c-54.06-47.52-137.19-64.53-191.72-46.98"/>
<path class="st5" d="M1074.38,630.12c27.08-6.33,51.18-18.34,67.65-36.21c51.77-56.19,23.74-135.08-34.57-188.81
	c-30.62-28.21-77.11-40.18-121.86-37.05"/>
<path class="st5" d="M867.71,499.08c-24.39-31.21-70.8-52.41-116.86-52.41c-50.11,0-93.11,39.34-111.48,82.23
	c-2.07,4.82-3.82,9.69-5.24,14.56"/>
<path class="st5" d="M423.06,590.63c30.01-48.98,91.62-82.56,162.75-82.56c41.47,0,79.71,11.42,110.34,30.65"/>
<path class="st5" d="M271.65,713.86c-38.95-45.17-16.93-104.38,27.93-143.06c44.86-38.68,133.03-29.87,171.98,15.3"/>
<path class="st5" d="M979.83,709.62c69.74,0,126.28-46.59,126.28-104.06c0-16.62-4.73-32.33-13.14-46.27"/>
<path class="st5" d="M310.25,612.93c-11.4-1.73-22.69-2.65-33.6-2.65c-87.28,0-158.03,58.3-158.03,130.22
	s70.75,108.54,158.03,108.54"/>
<path class="st5" d="M696.14,828.71c30.08,18.07,67.14,28.73,107.21,28.73c100.63,0,182.2-67.22,182.2-150.14
	c0-41.46-20.39-71.1-53.37-90.37"/>
<path class="st5" d="M474.91,731.52c-4.72-36.59-37.79-69.02-80.39-91.12"/>
<path class="st5" d="M724.54,622.83c-17.81-23.28-62.72-40.12-99.2-27.64"/>
<path class="st5" d="M444.27,746.51c26.71-21.86,63.61-35.39,104.36-35.39c25.57,0,52.2,7.89,76.71,20.77"/>
<path class="st5" d="M893.58,448.38c14.12-16.03,37.55-26.45,65.87-24.98c19.19,1,48.74,14.95,61.19,35.84"/>
<path class="st5" d="M688.93,782.52c20.52,23.86,33.5,50.77,33.5,75.79c0,66.73-92.3,94.78-173.81,94.78s-187.1-18.56-187.1-85.28"
	/>
<path class="st5" d="M423.07,870.08c0,84.81-83.44,153.57-186.37,153.57S50.33,954.9,50.33,870.08s83.44-119.34,186.37-119.34"/>
</svg>
