<?xml version="1.0" encoding="utf-8"?>
<!-- Generator: Adobe Illustrator 26.0.2, SVG Export Plug-In . SVG Version: 6.00 Build 0)  -->
<svg version="1.1" id="Layer_1" xmlns="http://www.w3.org/2000/svg" xmlns:xlink="http://www.w3.org/1999/xlink" x="0px" y="0px"
	 viewBox="0 0 1224 1224" style="enable-background:new 0 0 1224 1224;" xml:space="preserve">
<style type="text/css">
	.st0{fill:#A97C50;}
	.st1{fill:#231F20;}
	.st2{fill:#939598;}
	.st3{fill:#FFFFFF;}
	.st4{fill:#A97C50;stroke:#231F20;stroke-width:19.8425;stroke-linecap:round;stroke-linejoin:round;stroke-miterlimit:10;}
	.st5{fill:#A97C50;stroke:#231F20;stroke-width:19.8425;stroke-linecap:round;stroke-miterlimit:10;}
	.st6{fill:none;stroke:#FFFFFF;stroke-width:34.0157;stroke-linecap:round;stroke-linejoin:round;stroke-miterlimit:10;}
	.st7{fill:none;stroke:#FFFFFF;stroke-width:42.5197;stroke-linecap:round;stroke-miterlimit:10;}
	.st8{fill:none;stroke:#FFFFFF;stroke-width:34.0157;stroke-linecap:round;stroke-miterlimit:10;}
</style>
<path class="st5" d="M1120.67,670.48c-24.43-22.51-58.95-34.67-94.63-37.08c1.37-24.52-7.06-49.81-27.35-73.35
	c-39.19-45.45-119.35-60.94-171.32-36.03c-15-44.38-73.1-77.5-130.66-77.5c-48.27,0-89.93,36.5-109.35,77.52
	c-20.14-45.73-64.68-77.52-116.41-77.52c-61.1,0-136.89,44.35-156.23,103.64c-8.39-0.97-16.69-1.47-24.77-1.47
	c-87.28,0-158.03,58.3-158.03,130.22c0,7.82,0.84,15.22,2.44,22.2c-55.49,16.45-92.81,50.67-92.81,107.39
	c0,84.81,83.44,153.57,186.37,153.57c52.53,0,99.98-17.92,133.86-46.73c29.09,28.55,72.87,46.73,121.83,46.73
	c50.61,0,105.08-10.06,142.06-32.39c32.04,19.04,75.17,27.87,122.64,27.87c72.28,0,134.55-20.48,162.81-66.31
	c9.44,0.82,18.92,1.22,28.23,1.22c10.53,0,20.77-0.99,30.61-2.86c63.11,21.59,145.95,12.38,185.28-30.31
	C1207.01,803.09,1178.98,724.2,1120.67,670.48z"/>
<path class="st5" d="M310.05,578.85c0-73.09,90.27-132.34,160.89-132.34c59.22,0,109.04,41.67,123.58,98.22"/>
<path class="st5" d="M543.42,631.22c0,0,48.62-100.91,171.26-47.26"/>
<path class="st5" d="M383.68,655.52c27.19-35.26,71.95-53.49,122.08-53.16c66.63,0.43,136.58,45.87,147.57,99.63"/>
<path class="st5" d="M762.45,600.51c8.08-23.45,23.99-45.49,44.58-63.24c48.57-41.88,146.87-29.08,191.65,22.87
	c44.79,51.94,31.78,112.44-16.79,154.32"/>
<path class="st5" d="M917.99,859.95c58.31,53.73,185.49,55.53,237.26-0.66s23.74-135.08-34.57-188.81
	c-58.31-53.73-174.16-48.55-225.93,7.64"/>
<path class="st5" d="M383.77,567.83c-30.42-12.14-63.58-19.14-93.83-19.14c-87.28,0-158.03,58.3-158.03,130.22
	s70.75,108.54,158.03,108.54"/>
<path class="st5" d="M786.12,832.52c21.28,41.86,90.7,59.93,153.23,59.93c74.93,0,137.68-77.24,99.24-125.56"/>
<path class="st5" d="M414.29,808.49c0,84.81-83.44,153.57-186.37,153.57S41.55,893.31,41.55,808.49s83.44-119.34,186.37-119.34"/>
<path class="st5" d="M670.35,860.23c0,71.69-99.16,101.83-186.74,101.83s-158.57-58.12-158.57-129.81
	c0-35.41,17.31-67.5,45.39-90.92"/>
<path class="st5" d="M619.9,722.8c30.98-23.13,70.75-37.03,114.12-37.03c21.05,0,41.25,3.27,60.01,9.29"/>
<path class="st5" d="M927.3,830.16c0,89.09-80.14,127.38-178.99,127.38s-178.99-38.29-178.99-127.38c0-14.84,2.22-29.21,6.39-42.86"
	/>
<path class="st5" d="M646.9,795.05c14.66,21.25,23.46,43.88,23.46,65.23c0,71.69-99.16,101.83-186.74,101.83
	S325.05,903.99,325.05,832.3c0-53.77,39.93-99.9,96.85-119.61"/>
</svg>
