<?xml version="1.0" encoding="utf-8"?>
<!-- Generator: Adobe Illustrator 26.0.2, SVG Export Plug-In . SVG Version: 6.00 Build 0)  -->
<svg version="1.1" id="Layer_1" xmlns="http://www.w3.org/2000/svg" xmlns:xlink="http://www.w3.org/1999/xlink" x="0px" y="0px"
	 viewBox="0 0 1224 1224" style="enable-background:new 0 0 1224 1224;" xml:space="preserve">
<style type="text/css">
	.st0{fill:#A97C50;}
	.st1{fill:#231F20;}
	.st2{fill:#939598;}
	.st3{fill:#FFFFFF;}
	.st4{fill:#A97C50;stroke:#231F20;stroke-width:19.8425;stroke-linecap:round;stroke-linejoin:round;stroke-miterlimit:10;}
	.st5{fill:#A97C50;stroke:#231F20;stroke-width:19.8425;stroke-linecap:round;stroke-miterlimit:10;}
	.st6{fill:none;stroke:#FFFFFF;stroke-width:34.0157;stroke-linecap:round;stroke-linejoin:round;stroke-miterlimit:10;}
	.st7{fill:none;stroke:#FFFFFF;stroke-width:42.5197;stroke-linecap:round;stroke-miterlimit:10;}
	.st8{fill:none;stroke:#FFFFFF;stroke-width:34.0157;stroke-linecap:round;stroke-miterlimit:10;}
</style>
<g>
	<path class="st0" d="M865.3,492.56c-31.47,0-65.64-3.48-96.23-9.79c-16.2-3.35-33-6.1-49.94-8.19
		c-36.28-4.47-98.77-17.24-109.77-52.59c-14.27-45.88,47.96-101.92,86.98-127.8c16.43-10.9,30.42-20.91,42.77-30.61
		c25.37-19.92,51.96-35.09,72.95-41.62c9.09-2.83,19-4.26,29.45-4.26c30.17,0,64.7,12.13,94.72,33.29
		c30.44,21.45,52.95,49.99,61.75,78.3c10.83,34.82,11.04,67.69,0.6,95.05c-11.3,29.63-34.32,50.59-66.57,60.62
		C916.04,489.93,892.97,492.56,865.3,492.56z"/>
	<g>
		<path class="st1" d="M841.51,227.62c58.63,0,129.72,49.07,147,104.61c20,64.29,1.97,124.15-59.44,143.25
			c-15.19,4.72-37.89,7.15-63.76,7.15c-29.44,0-62.97-3.14-94.23-9.59c-16.79-3.47-33.72-6.22-50.74-8.32
			c-48.73-6-93.7-20.6-101.51-45.69c-10.99-35.34,36.44-85.71,82.99-116.58c14.84-9.84,29.41-20.08,43.41-31.07
			c24.3-19.08,49.66-33.69,69.77-39.95C823.36,228.84,832.28,227.62,841.51,227.62 M841.52,207.78v19.84V207.78
			c-11.46,0-22.36,1.58-32.4,4.71c-22.42,6.97-49.46,22.35-76.13,43.29c-12.13,9.53-25.91,19.39-42.13,30.14
			c-26.95,17.88-51.01,39.52-67.74,60.94c-9.87,12.64-17,25-21.19,36.73c-5.28,14.81-5.97,28.72-2.04,41.34
			c12.02,38.63,70.82,53.67,118.03,59.49c16.68,2.05,33.22,4.77,49.15,8.06c31.23,6.45,66.12,10,98.24,10
			c19.98,0,48.29-1.4,69.66-8.04c17.79-5.53,33.14-14.22,45.62-25.81c12.06-11.2,21.24-24.91,27.28-40.75
			c11.24-29.46,11.1-64.57-0.4-101.54c-4.94-15.89-13.53-31.48-25.51-46.34c-11.08-13.74-24.54-26.23-39.99-37.12
			C910.29,220.57,873.69,207.78,841.52,207.78L841.52,207.78z"/>
	</g>
</g>
<g>
	<path class="st0" d="M989.9,913.4c-31.07,0-63.54-11.83-93.92-34.21l-3.5-2.57c-17.24-12.69-38.7-28.49-60.35-46.48
		c-11.85-9.85-24.87-18.19-38.71-24.79c-35.31-16.84-60.82-33.1-77.98-49.7c-22.29-21.56-29.95-43.59-22.77-65.49
		c12.02-36.63,62.19-59.57,102.17-72.36c48-15.36,108.34-24.52,161.42-24.52c33.72,0,62.76,3.68,83.97,10.64
		c45.16,14.81,82.92,43.32,106.32,80.27c23.79,37.56,29.98,79.33,17.42,117.61c-10.78,32.87-33.73,56.77-66.37,69.11
		c-16.16,6.11-30.59,13.57-42.9,22.18C1035.43,906.56,1013.62,913.4,989.9,913.4z"/>
	<path class="st1" d="M956.27,603.19c31.49,0,59.9,3.26,80.88,10.14c88.86,29.15,141.42,112.14,117.4,185.36
		c-10.39,31.66-32.04,52.18-60.45,62.92c-15.89,6.01-31.16,13.59-45.08,23.33c-18.12,12.67-38.3,18.53-59.12,18.53
		c-29.4,0-60.07-11.67-88.04-32.27c-17.3-12.75-40.45-29.63-63.39-48.7c-12.46-10.35-26.16-19.14-40.78-26.11
		c-60.76-28.98-108.33-64.32-95.59-103.15C720.45,637.31,854.42,603.19,956.27,603.19 M956.27,583.35v19.84V583.35
		c-54.05,0-115.53,9.34-164.45,24.99c-27.17,8.69-49.9,19.02-67.54,30.68c-21.42,14.17-35.23,30.33-41.04,48.03
		c-5.82,17.75-6.16,45.29,25.29,75.71c17.95,17.36,44.32,34.22,80.61,51.53c13.09,6.24,25.42,14.14,36.64,23.46
		c21.88,18.18,43.47,34.08,60.82,46.85l3.49,2.57c32.09,23.64,66.61,36.14,99.81,36.14c25.8,0,49.51-7.44,70.49-22.11
		c11.64-8.14,25.34-15.21,40.73-21.03c35.54-13.43,60.54-39.47,72.29-75.29c6.86-20.92,8.56-42.81,5.03-65.05
		c-3.35-21.13-11.25-41.64-23.49-60.96c-24.63-38.89-64.27-68.86-111.61-84.39C1021.13,587.2,991.03,583.35,956.27,583.35
		L956.27,583.35z"/>
</g>
<g>
	<path class="st0" d="M318.45,635.19c-15.7,0-33.59-1.74-53.18-5.16c-64.7-11.31-130.81-58.15-122.22-107.27
		c0.05-0.31,0.12-0.63,0.18-0.96c-3.08-10.78-4.42-21.85-4-32.89c1.28-33.47,18.6-60.29,50.1-77.55
		c27.07-14.84,64.87-22.68,109.32-22.68c4.99,0,10.13,0.1,15.27,0.3c59.07,2.26,121.07,26.09,170.12,65.4
		c22.05,17.67,40.37,37.67,52.98,57.84c13.24,21.18,19.87,42.12,19.17,60.56c-2.05,53.6-76.28,59.8-131.95,59.8
		c-22.24,0-44.99-1.06-66.28-2.22C346.87,633.56,333.58,635.19,318.45,635.19z"/>
	<g>
		<path class="st1" d="M298.65,398.61c4.91,0,9.87,0.1,14.89,0.29c125.24,4.78,235.31,105.99,232.73,173.5
			c-1.58,41.24-58.07,50.26-122.03,50.26c-21.79,0-44.44-1.05-66.09-2.22c-0.14-0.01-0.28-0.01-0.42-0.01
			c-0.77,0-1.54,0.12-2.28,0.33c-10.63,3.11-23.17,4.51-36.99,4.51c-15.77,0-33.22-1.82-51.47-5.01
			c-63.16-11.04-121.26-55.15-114.16-95.79c0.06-0.34,0.12-0.67,0.19-1.01c0.28-1.34,0.23-2.73-0.15-4.05
			c-2.81-9.7-4.12-19.79-3.72-30.12C151.58,425.6,216.75,398.61,298.65,398.61 M298.66,378.76v19.84V378.76
			c-46.13,0-85.58,8.27-114.1,23.9c-34.72,19.03-53.83,48.73-55.24,85.87c-0.43,11.33,0.83,22.68,3.76,33.76
			c-2.1,13.77,0.75,28.33,8.26,42.2c6.59,12.16,16.59,23.73,29.71,34.38c24.69,20.05,58.42,34.98,92.52,40.94
			c20.15,3.52,38.62,5.31,54.89,5.31c15.33,0,28.97-1.6,40.6-4.76c20.96,1.13,43.28,2.14,65.18,2.14c39.92,0,68.73-3.39,90.66-10.68
			c40.98-13.61,50.46-39.42,51.2-58.67c1.53-39.94-26.83-87.23-75.85-126.52c-23.68-18.98-51.26-35.07-79.74-46.52
			c-31.68-12.74-64.05-19.82-96.21-21.05C309.03,378.86,303.77,378.76,298.66,378.76L298.66,378.76z"/>
	</g>
</g>
<g>
	<path class="st0" d="M246.65,1069.2c-58.62,0-111.25-26.97-137.33-70.39c-6.31-10.5-14.06-20.98-23.7-32.05
		c-15.98-18.35-27.56-38.88-34.44-60.99c-7.16-23.02-8.82-46.58-4.95-70.04c11.19-67.78,64.61-105.1,150.41-105.1
		c18.09,0,37.5,1.69,57.68,5.02c73.19,12.08,130.09,17.13,175.81,21.19c68.79,6.1,106.68,9.46,123.91,31.7
		c9.17,11.83,11.55,27.48,7.71,50.74c-6.66,40.36-52.17,78.8-89.17,103.93c-18.13,12.31-35.11,28.02-50.48,46.69
		c-17.2,20.88-42.24,39.58-72.42,54.07c-29.13,13.98-61.01,22.78-89.77,24.77C255.49,1069.04,251.04,1069.2,246.65,1069.2
		C246.65,1069.2,246.65,1069.2,246.65,1069.2z"/>
	<path class="st1" d="M196.64,740.55c17.89,0,36.73,1.7,56.07,4.89c235.6,38.9,313.46,6.17,299.25,92.22
		c-5.15,31.21-39.11,66.2-84.96,97.34c-19.84,13.48-37.32,30.07-52.57,48.59c-33.53,40.72-98.89,71.35-155.22,75.25
		c-4.22,0.29-8.41,0.44-12.56,0.44c-56.13,0-105.18-26.23-128.83-65.58c-7.16-11.91-15.59-22.98-24.72-33.46
		c-29.68-34.1-44.49-78.06-37.09-122.9C67.4,768.34,124.24,740.55,196.64,740.55 M196.64,720.71c-41.96,0-76.87,8.61-103.78,25.58
		c-15.05,9.49-27.44,21.59-36.85,35.95c-9.77,14.92-16.36,32.37-19.58,51.88c-4.13,25-2.35,50.09,5.27,74.6
		c7.29,23.44,19.55,45.16,36.43,64.56c9.25,10.63,16.67,20.66,22.67,30.65c13.63,22.68,34.43,41.69,60.14,54.96
		c25.66,13.24,55.29,20.24,85.7,20.24c4.62,0,9.3-0.16,13.93-0.48c29.98-2.08,63.14-11.21,93.38-25.73
		c31.47-15.11,57.68-34.72,75.79-56.71c14.77-17.94,31.05-33,48.4-44.79c38.61-26.23,86.15-66.69,93.39-110.52
		c2.69-16.27,4.61-40.03-9.66-58.43c-19.89-25.66-59.31-29.16-130.88-35.51c-45.55-4.04-102.24-9.07-175.07-21.09
		C235.22,722.44,215.27,720.71,196.64,720.71L196.64,720.71z"/>
</g>
<g>
	<path class="st0" d="M464.03,1053.8c-33.84,0-63.15-7.25-84.75-20.95c-24.54-15.57-37.51-38.44-37.51-66.13
		c0-48.44,43.86-106.94,98.32-106.94c9.26,0,18.49,1.71,27.44,5.08c43.04,16.22,77.01,31.56,100.95,45.62
		c35.33,20.73,50.57,39.81,46.61,58.32C603.14,1024.6,530.05,1053.8,464.03,1053.8z"/>
	<g>
		<path class="st1" d="M440.09,869.7c7.81,0,15.84,1.39,23.94,4.44c70.2,26.45,147.82,62.4,141.36,92.57
			c-10.7,49.99-79.31,77.16-141.36,77.16s-112.34-26.04-112.34-77.16C351.69,922.72,391.88,869.7,440.09,869.7 M440.09,849.86
			c-14.87,0-29.52,3.81-43.53,11.33c-12.47,6.69-23.84,15.98-33.81,27.61c-19.35,22.57-30.9,51.7-30.9,77.92
			c0,15.98,3.9,30.69,11.58,43.71c7.15,12.12,17.43,22.48,30.53,30.8c23.19,14.72,54.34,22.5,90.07,22.5
			c35.26,0,70.33-7.78,98.76-21.91c15.79-7.85,29-17.41,39.25-28.44c11.77-12.65,19.42-26.95,22.75-42.51
			c2.04-9.53,1.21-24.4-14.36-41.14c-8.45-9.09-20.53-18.19-36.93-27.81c-24.43-14.34-58.91-29.93-102.47-46.34
			C460.96,851.78,450.55,849.86,440.09,849.86L440.09,849.86z"/>
	</g>
</g>
<g>
	<path class="st0" d="M937.72,948.08c-80.89,0-125.44-28.61-125.44-80.57c0-28.5,13.61-60.66,36.41-86.03
		c25.07-27.9,56.68-43.26,89.03-43.26c33.27,0,67.54,10.86,94.03,29.78c28.57,20.42,44.31,47.11,44.31,75.15
		s-15.74,54.73-44.31,75.15C1005.26,937.22,970.99,948.08,937.72,948.08z"/>
	<path class="st1" d="M937.72,747.13c64.35,0,129.42,42.99,129.42,96.01s-65.07,96.01-129.42,96.01
		c-64.35,0-116.52-18.62-116.52-71.65S873.36,747.13,937.72,747.13 M937.72,729.3c-74.42,0-134.36,75.61-134.36,138.21
		c0,31.49,15.06,56.19,43.55,71.44c22.38,11.98,52.93,18.05,90.81,18.05c35.09,0,71.25-11.46,99.21-31.45
		c14.45-10.33,25.96-22.32,34.2-35.65c9.18-14.85,13.84-30.58,13.84-46.75s-4.66-31.91-13.84-46.75
		c-8.24-13.32-19.75-25.32-34.2-35.65C1008.97,740.76,972.8,729.3,937.72,729.3L937.72,729.3z"/>
</g>
<g>
	<path class="st0" d="M690.81,517.43c-19.83,0-34-1.81-44.6-5.69c-19.77-7.24-23.91-20.78-23.91-30.87
		c0-20.88,14.73-48.51,38.43-72.12c25.05-24.95,53.25-39.26,77.37-39.26c51.87,0,94.07,35.56,94.07,79.26
		c0,23.02-5.24,38.78-16.5,49.6c-11.71,11.25-29.24,16.49-55.18,16.49c-9.22,0-19.96,0.58-31.34,1.2
		C716.49,516.72,703.39,517.43,690.81,517.43z"/>
	<g>
		<path class="st1" d="M738.11,379.4c46.48,0,84.15,31.05,84.15,69.34c0,38.3-15.28,56.17-61.76,56.17
			c-19.83,0-46.1,2.59-69.69,2.59c-31.7,0-58.59-4.68-58.59-26.64C632.22,442.57,691.63,379.4,738.11,379.4 M738.11,359.56
			c-26.72,0-57.48,15.37-84.37,42.16c-25.89,25.79-41.35,55.38-41.35,79.15c0,9.98,3.27,19.09,9.46,26.32
			c5.11,5.97,12.16,10.64,20.96,13.86c11.73,4.3,26.98,6.3,48.01,6.3c12.85,0,26.09-0.72,38.89-1.41
			c11.24-0.61,21.85-1.18,30.8-1.18c28.67,0,48.39-6.12,62.06-19.26c17.52-16.84,19.54-40.45,19.54-56.75
			c0-12.54-2.96-24.67-8.8-36.05c-5.48-10.68-13.24-20.2-23.07-28.29C790.79,368.38,765.18,359.56,738.11,359.56L738.11,359.56z"/>
	</g>
</g>
</svg>
