<?xml version="1.0" encoding="utf-8"?>
<!-- Generator: Adobe Illustrator 26.0.2, SVG Export Plug-In . SVG Version: 6.00 Build 0)  -->
<svg version="1.1" id="Layer_1" xmlns="http://www.w3.org/2000/svg" xmlns:xlink="http://www.w3.org/1999/xlink" x="0px" y="0px"
	 viewBox="0 0 1224 1224" style="enable-background:new 0 0 1224 1224;" xml:space="preserve">
<style type="text/css">
	.st0{fill:#A97C50;}
	.st1{fill:#231F20;}
	.st2{fill:#939598;}
	.st3{fill:#FFFFFF;}
	.st4{fill:#A97C50;stroke:#231F20;stroke-width:19.8425;stroke-linecap:round;stroke-linejoin:round;stroke-miterlimit:10;}
	.st5{fill:#A97C50;stroke:#231F20;stroke-width:19.8425;stroke-linecap:round;stroke-miterlimit:10;}
	.st6{fill:none;stroke:#FFFFFF;stroke-width:34.0157;stroke-linecap:round;stroke-linejoin:round;stroke-miterlimit:10;}
	.st7{fill:none;stroke:#FFFFFF;stroke-width:42.5197;stroke-linecap:round;stroke-miterlimit:10;}
	.st8{fill:none;stroke:#FFFFFF;stroke-width:34.0157;stroke-linecap:round;stroke-miterlimit:10;}
</style>
<path class="st4" d="M913.54,518.39c29.47,44.72-31.89,134.97-244.14,146.32c-212.25,11.35-369.55,7.96-502.52,74.36
	S58.84,909.2,86.02,936.39c107.94,107.94,314.84-1.05,446.04-19.31s333.84-24.39,524.39-141.26s61.99-300.3,61.99-300.3
	s-126-209.24-473.31-192.09S304.68,412.34,310.69,435.49c6,23.15,15.22,62.14,307.78,30.87c219.32-23.44,265.3,47.52,281.85,120.88
	c13.14-15.12,21.74-31.55,19.8-51.03"/>
</svg>
